<svg width="24" height="24" viewBox="0 0 24 24" fill="none" xmlns="http://www.w3.org/2000/svg">
<path d="M20.94 11.69C22.58 9.69 23.32 7.61 22.39 6C21.46 4.39 19.31 4 16.74 4.41C16.628 4.42892 16.5129 4.40834 16.4144 4.3518C16.316 4.29525 16.2402 4.20625 16.2 4.1C15.27 1.67 13.86 0 12 0C10.14 0 8.73002 1.67 7.80002 4.1C7.75988 4.20625 7.68409 4.29525 7.58559 4.3518C7.48709 4.40834 7.37201 4.42892 7.26002 4.41C4.69002 4 2.54002 4.39 1.61002 6C0.680019 7.61 1.42002 9.67 3.06002 11.69C3.13332 11.7767 3.17355 11.8865 3.17355 12C3.17355 12.1135 3.13332 12.2233 3.06002 12.31C1.42002 14.33 0.680019 16.39 1.61002 18C2.31002 19.22 3.72002 19.74 5.49002 19.74C6.0831 19.7378 6.67503 19.6876 7.26002 19.59C7.37201 19.5711 7.48709 19.5917 7.58559 19.6482C7.68409 19.7047 7.75988 19.7938 7.80002 19.9C8.73002 22.33 10.14 24 12 24C13.86 24 15.27 22.33 16.2 19.9C16.2402 19.7938 16.316 19.7047 16.4144 19.6482C16.5129 19.5917 16.628 19.5711 16.74 19.59C17.325 19.6876 17.9169 19.7378 18.51 19.74C20.28 19.74 21.69 19.22 22.39 18C23.32 16.39 22.58 14.33 20.94 12.31C20.8667 12.2233 20.8265 12.1135 20.8265 12C20.8265 11.8865 20.8667 11.7767 20.94 11.69ZM3.34002 7C3.61002 6.53 4.34002 6.25 5.53002 6.25C5.86449 6.25241 6.19848 6.27578 6.53002 6.32C6.60144 6.32311 6.67137 6.3415 6.73508 6.37393C6.79879 6.40636 6.85481 6.45207 6.89935 6.50799C6.9439 6.56391 6.97593 6.62872 6.9933 6.69807C7.01066 6.76742 7.01295 6.83969 7.00002 6.91C6.88002 7.5 6.78002 8.1 6.70002 8.72C6.6944 8.78555 6.67447 8.84907 6.64164 8.90609C6.60882 8.9631 6.56389 9.01223 6.51002 9.05C6.02002 9.43 5.51002 9.82 5.09002 10.21C5.03934 10.2566 4.97903 10.2915 4.91337 10.3123C4.8477 10.333 4.77828 10.3391 4.71002 10.33C4.64178 10.324 4.57549 10.304 4.51529 10.2713C4.45508 10.2387 4.40223 10.194 4.36002 10.14C3.33002 8.76 3.00002 7.6 3.34002 7ZM6.91002 17.48C6.87122 17.536 6.82072 17.5829 6.76202 17.6174C6.70331 17.6519 6.6378 17.6733 6.57002 17.68C4.86002 17.89 3.69002 17.61 3.34002 17C2.99002 16.39 3.34002 15.24 4.34002 13.86C4.38223 13.806 4.43508 13.7613 4.49529 13.7287C4.55549 13.696 4.62178 13.676 4.69002 13.67C4.75828 13.6609 4.8277 13.667 4.89337 13.6877C4.95903 13.7085 5.01934 13.7434 5.07002 13.79C5.52002 14.18 6.00002 14.57 6.49002 14.95C6.54389 14.9878 6.58882 15.0369 6.62164 15.0939C6.65447 15.1509 6.6744 15.2144 6.68002 15.28C6.76002 15.9 6.86002 16.5 6.98002 17.09C6.99815 17.1561 7.00127 17.2254 6.98916 17.2929C6.97705 17.3604 6.95001 17.4243 6.91002 17.48ZM9.79002 4.48C10.47 2.87 11.3 2 12 2C12.7 2 13.53 2.87 14.21 4.45C14.237 4.51475 14.2503 4.58437 14.2491 4.65449C14.248 4.72462 14.2323 4.79376 14.2032 4.85757C14.1742 4.92139 14.1322 4.97853 14.08 5.0254C14.0279 5.07227 13.9666 5.10788 13.9 5.13C13.34 5.31 12.76 5.53 12.19 5.77C12.0683 5.82001 11.9318 5.82001 11.81 5.77C11.24 5.53 10.66 5.31 10.1 5.12C10.0349 5.09944 9.9747 5.06577 9.92311 5.02105C9.87151 4.97633 9.82962 4.92152 9.80002 4.86C9.7712 4.79575 9.75547 4.7264 9.75375 4.65601C9.75204 4.58561 9.76437 4.51558 9.79002 4.45V4.48ZM14.21 19.58C13.53 21.13 12.7 22 12 22C11.3 22 10.47 21.13 9.79002 19.55C9.76306 19.4852 9.74975 19.4156 9.75091 19.3455C9.75208 19.2754 9.7677 19.2062 9.79679 19.1424C9.82589 19.0786 9.86783 19.0215 9.92 18.9746C9.97218 18.9277 10.0335 18.8921 10.1 18.87C10.66 18.69 11.24 18.47 11.81 18.23C11.9318 18.18 12.0683 18.18 12.19 18.23C12.76 18.47 13.34 18.69 13.9 18.87C13.966 18.8917 14.0268 18.9269 14.0785 18.9734C14.1301 19.0199 14.1715 19.0766 14.2 19.14C14.2288 19.2042 14.2446 19.2736 14.2463 19.344C14.248 19.4144 14.2357 19.4844 14.21 19.55V19.58ZM15.44 13.76C15.4354 13.8375 15.4132 13.9129 15.3751 13.9804C15.337 14.048 15.2839 14.106 15.22 14.15C14.76 14.45 14.22 14.76 13.75 15.06C13.28 15.36 12.75 15.63 12.22 15.88C12.1518 15.9143 12.0764 15.9322 12 15.9322C11.9236 15.9322 11.8483 15.9143 11.78 15.88C11.28 15.63 10.78 15.36 10.25 15.06C9.72002 14.76 9.25002 14.45 8.78002 14.15C8.7161 14.106 8.66305 14.048 8.62493 13.9804C8.5868 13.9129 8.5646 13.8375 8.56002 13.76C8.56002 13.21 8.50002 12.63 8.50002 12.03C8.50002 11.43 8.50002 10.85 8.56002 10.3C8.5646 10.2225 8.5868 10.1471 8.62493 10.0796C8.66305 10.012 8.7161 9.95399 8.78002 9.91C9.24002 9.61 9.78002 9.3 10.25 9C10.72 8.7 11.25 8.43 11.78 8.18C11.8483 8.1457 11.9236 8.12784 12 8.12784C12.0764 8.12784 12.1518 8.1457 12.22 8.18C12.72 8.43 13.22 8.7 13.75 9C14.28 9.3 14.75 9.61 15.22 9.91C15.2839 9.95399 15.337 10.012 15.3751 10.0796C15.4132 10.1471 15.4354 10.2225 15.44 10.3C15.44 10.85 15.5 11.43 15.5 12.03C15.5 12.63 15.48 13.18 15.44 13.73V13.76ZM20.66 17C20.31 17.6 19.14 17.89 17.43 17.68C17.3621 17.6716 17.2966 17.6494 17.2376 17.6147C17.1786 17.58 17.1274 17.5336 17.0871 17.4782C17.0468 17.4229 17.0182 17.3599 17.0033 17.2932C16.9883 17.2264 16.9872 17.1572 17 17.09C17.12 16.5 17.22 15.9 17.3 15.28C17.3056 15.2144 17.3256 15.1509 17.3584 15.0939C17.3912 15.0369 17.4362 14.9878 17.49 14.95C17.98 14.57 18.49 14.18 18.91 13.79C18.9607 13.7434 19.021 13.7085 19.0867 13.6877C19.1523 13.667 19.2218 13.6609 19.29 13.67C19.3583 13.676 19.4245 13.696 19.4848 13.7287C19.545 13.7613 19.5978 13.806 19.64 13.86C20.67 15.24 21 16.4 20.66 17ZM19.66 10.14C19.6178 10.194 19.565 10.2387 19.5048 10.2713C19.4445 10.304 19.3783 10.324 19.31 10.33C19.2418 10.3391 19.1723 10.333 19.1067 10.3123C19.041 10.2915 18.9807 10.2566 18.93 10.21C18.48 9.82 18 9.43 17.51 9.05C17.4562 9.01223 17.4112 8.9631 17.3784 8.90609C17.3456 8.84907 17.3256 8.78555 17.32 8.72C17.24 8.1 17.14 7.5 17.02 6.91C17.0072 6.84277 17.0083 6.77363 17.0233 6.70684C17.0382 6.64006 17.0668 6.57707 17.1071 6.52176C17.1474 6.46645 17.1986 6.42 17.2576 6.3853C17.3166 6.35059 17.3821 6.32837 17.45 6.32C17.7816 6.27578 18.1156 6.25241 18.45 6.25C19.59 6.25 20.37 6.53 20.64 7C20.91 7.47 20.67 8.76 19.64 10.14H19.66Z" fill="black"/>
<path d="M10.04 12C10.04 12.5066 10.2465 12.9924 10.6141 13.3506C10.9817 13.7088 11.4802 13.91 12 13.91C12.5199 13.91 13.0184 13.7088 13.386 13.3506C13.7535 12.9924 13.96 12.5066 13.96 12C13.96 11.4934 13.7535 11.0076 13.386 10.6494C13.0184 10.2912 12.5199 10.09 12 10.09C11.4802 10.09 10.9817 10.2912 10.6141 10.6494C10.2465 11.0076 10.04 11.4934 10.04 12Z" fill="black"/>
</svg>
